<svg width="435" height="138" viewBox="0 0 435 138" fill="none" xmlns="http://www.w3.org/2000/svg">
<path d="M3.98438 72.3906C3.98438 64.6406 5.92188 58.4688 9.79688 53.875C13.6719 49.2812 19.2188 46.9844 26.4375 46.9844C32.4375 46.9844 37.4062 49.0938 41.3438 53.3125C45.3125 57.5 47.2969 64.2031 47.2969 73.4219C47.2969 74.8281 46.6562 75.5312 45.375 75.5312H12.7031C13.2344 81.5625 14.8594 85.7656 17.5781 88.1406C20.2969 90.4844 23.375 91.6562 26.8125 91.6562C30.4375 91.6562 33.2188 91.0469 35.1562 89.8281C37.0938 88.6094 38.5156 87.4062 39.4219 86.2188C40.4219 84.9062 41.3906 84.6562 42.3281 85.4688L45.0938 87.8594C45.8125 88.4844 45.8125 89.3438 45.0938 90.4375C44.5 91.3438 42.7969 92.7969 39.9844 94.7969C37.2031 96.7969 32.8125 97.7969 26.8125 97.7969C19 97.7969 13.2344 95.5 9.51562 90.9062C5.82812 86.3125 3.98438 80.1406 3.98438 72.3906ZM12.5156 69.4375H39C38.875 65.0625 37.75 61.2344 35.625 57.9531C33.5 54.6406 30.375 52.9844 26.25 52.9844C22.625 52.9844 19.5469 54.2031 17.0156 56.6406C14.4844 59.0469 12.9844 63.3125 12.5156 69.4375ZM60.2344 97C58.8281 97 58.125 96.2969 58.125 94.8906V36.3906C58.125 35.7656 58.2812 35.1719 58.5938 34.6094L61.875 28.6562C62.4688 27.5625 62.9531 27.0156 63.3281 27.0156H64.9688C65.9062 27.0156 66.375 27.5625 66.375 28.6562V94.8906C66.375 96.2969 65.6719 97 64.2656 97H60.2344ZM77.0156 83.875C77.0156 78.3125 79.6094 74.2344 84.7969 71.6406C90.0156 69.0469 97.7969 67.5312 108.141 67.0938V63.9062C108.141 60.9688 107.469 58.4375 106.125 56.3125C104.812 54.1562 102.188 53.0781 98.25 53.0781C95.75 53.0781 93.75 53.3281 92.25 53.8281C90.75 54.2969 89.375 54.9375 88.125 55.75C86.9062 56.5312 85.7344 57.5469 84.6094 58.7969C83.7656 59.7344 82.9688 59.7812 82.2188 58.9375L79.7812 56.125C79.0938 55.3438 79.3281 54.4062 80.4844 53.3125C82.1406 51.75 83.75 50.5781 85.3125 49.7969C86.875 49.0156 88.8125 48.3594 91.125 47.8281C93.4688 47.2656 95.8438 46.9844 98.25 46.9844C104.781 46.9844 109.438 48.6719 112.219 52.0469C115 55.3906 116.391 59.9844 116.391 65.8281V94.8906C116.391 96.2969 115.688 97 114.281 97H110.062C108.844 97 108.234 96.2969 108.234 94.8906V92.5938H108.141C105.672 94.5312 103.25 95.8906 100.875 96.6719C98.5312 97.4219 95.9062 97.7969 93 97.7969C87.875 97.7969 83.9219 96.5781 81.1406 94.1406C78.3906 91.6719 77.0156 88.25 77.0156 83.875ZM85.5469 84.0625C85.5469 86 85.9531 87.5625 86.7656 88.75C87.5781 89.9062 88.7031 90.6562 90.1406 91C91.5781 91.3125 93.0781 91.4688 94.6406 91.4688C97.0469 91.4688 99.3281 91.2344 101.484 90.7656C103.641 90.2969 105.859 89.0625 108.141 87.0625V73.2344C101.828 73.7031 97.3281 74.2812 94.6406 74.9688C91.9531 75.625 89.7656 76.7812 88.0781 78.4375C86.3906 80.0625 85.5469 81.9375 85.5469 84.0625ZM131.859 97C130.453 97 129.75 96.2969 129.75 94.8906V29.9219C129.75 28.5156 130.453 27.8125 131.859 27.8125H135.891C137.297 27.8125 138 28.5156 138 29.9219V50.7812C138 51.75 137.969 52.7031 137.906 53.6406H138C139.719 51.5781 141.656 49.9531 143.812 48.7656C145.969 47.5781 148.844 46.9844 152.438 46.9844C158.688 46.9844 163.438 49.5469 166.688 54.6719C169.938 59.7656 171.562 65.6719 171.562 72.3906C171.562 79.1094 169.938 85.0312 166.688 90.1562C163.438 95.25 158.688 97.7969 152.438 97.7969C148.844 97.7969 145.969 97.2031 143.812 96.0156C141.656 94.8281 139.719 93.2031 138 91.1406H137.906L137.625 94.8906C137.531 96.2969 136.922 97 135.797 97H131.859ZM138 77.7812C138 82.4688 139.109 85.9688 141.328 88.2812C143.578 90.5625 146.391 91.7031 149.766 91.7031C154.516 91.7031 157.875 89.9219 159.844 86.3594C161.844 82.7969 162.844 78.1406 162.844 72.3906C162.844 66.6406 161.844 61.9844 159.844 58.4219C157.875 54.8594 154.516 53.0781 149.766 53.0781C146.391 53.0781 143.578 54.2344 141.328 56.5469C139.109 58.8281 138 62.3125 138 67V77.7812ZM179.578 72.3906C179.578 65.0469 181.516 58.9844 185.391 54.2031C189.297 49.3906 195 46.9844 202.5 46.9844C210 46.9844 215.688 49.3906 219.562 54.2031C223.469 58.9844 225.422 65.0469 225.422 72.3906C225.422 79.7344 223.469 85.8125 219.562 90.625C215.688 95.4062 210 97.7969 202.5 97.7969C195 97.7969 189.297 95.4062 185.391 90.625C181.516 85.8125 179.578 79.7344 179.578 72.3906ZM188.297 72.3906C188.297 78.9531 189.594 83.8125 192.188 86.9688C194.781 90.125 198.219 91.7031 202.5 91.7031C206.781 91.7031 210.219 90.125 212.812 86.9688C215.406 83.8125 216.703 78.9531 216.703 72.3906C216.703 65.8281 215.406 60.9688 212.812 57.8125C210.219 54.6562 206.781 53.0781 202.5 53.0781C198.219 53.0781 194.781 54.6562 192.188 57.8125C189.594 60.9688 188.297 65.8281 188.297 72.3906ZM238.172 97C236.766 97 236.062 96.2969 236.062 94.8906V49.8906C236.062 48.4844 236.766 47.7812 238.172 47.7812H242.109C243.516 47.7812 244.219 48.4844 244.219 49.8906V55.5156H244.406C245.906 52.7031 247.672 50.5781 249.703 49.1406C251.734 47.7031 254.266 46.9844 257.297 46.9844C259.297 46.9844 260.703 47.1562 261.516 47.5C262.234 47.7812 262.5 48.25 262.312 48.9062L261.234 52.75C261.078 53.3125 260.672 53.5312 260.016 53.4062C258.922 53.1875 257.891 53.0781 256.922 53.0781C253.266 53.0781 250.25 54.7344 247.875 58.0469C245.5 61.3281 244.312 65.8125 244.312 71.5V94.8906C244.312 96.2969 243.609 97 242.203 97H238.172ZM267.234 83.875C267.234 78.3125 269.828 74.2344 275.016 71.6406C280.234 69.0469 288.016 67.5312 298.359 67.0938V63.9062C298.359 60.9688 297.688 58.4375 296.344 56.3125C295.031 54.1562 292.406 53.0781 288.469 53.0781C285.969 53.0781 283.969 53.3281 282.469 53.8281C280.969 54.2969 279.594 54.9375 278.344 55.75C277.125 56.5312 275.953 57.5469 274.828 58.7969C273.984 59.7344 273.188 59.7812 272.438 58.9375L270 56.125C269.312 55.3438 269.547 54.4062 270.703 53.3125C272.359 51.75 273.969 50.5781 275.531 49.7969C277.094 49.0156 279.031 48.3594 281.344 47.8281C283.688 47.2656 286.062 46.9844 288.469 46.9844C295 46.9844 299.656 48.6719 302.438 52.0469C305.219 55.3906 306.609 59.9844 306.609 65.8281V94.8906C306.609 96.2969 305.906 97 304.5 97H300.281C299.062 97 298.453 96.2969 298.453 94.8906V92.5938H298.359C295.891 94.5312 293.469 95.8906 291.094 96.6719C288.75 97.4219 286.125 97.7969 283.219 97.7969C278.094 97.7969 274.141 96.5781 271.359 94.1406C268.609 91.6719 267.234 88.25 267.234 83.875ZM275.766 84.0625C275.766 86 276.172 87.5625 276.984 88.75C277.797 89.9062 278.922 90.6562 280.359 91C281.797 91.3125 283.297 91.4688 284.859 91.4688C287.266 91.4688 289.547 91.2344 291.703 90.7656C293.859 90.2969 296.078 89.0625 298.359 87.0625V73.2344C292.047 73.7031 287.547 74.2812 284.859 74.9688C282.172 75.625 279.984 76.7812 278.297 78.4375C276.609 80.0625 275.766 81.9375 275.766 84.0625ZM317.578 53.9688C316.172 53.9688 315.469 53.4219 315.469 52.3281V49.4219C315.469 48.3281 316.172 47.7812 317.578 47.7812H323.109V43.5625C323.109 42.9375 323.266 42.3438 323.578 41.7812L326.859 35.8281C327.453 34.7344 327.938 34.1875 328.312 34.1875H329.953C330.891 34.1875 331.359 34.7344 331.359 35.8281V47.7812H341.344C342.75 47.7812 343.453 48.3281 343.453 49.4219V52.3281C343.453 53.4219 342.75 53.9688 341.344 53.9688H331.359V83.8281C331.359 87.1094 331.844 89.25 332.812 90.25C333.812 91.2188 335 91.7031 336.375 91.7031C337.438 91.7031 338.703 91.3906 340.172 90.7656C341.672 90.1406 342.703 89.6094 343.266 89.1719C343.828 88.7344 344.266 88.875 344.578 89.5938L346.125 93.2031C346.375 93.8281 346.188 94.3281 345.562 94.7031C344.344 95.4219 342.562 96.125 340.219 96.8125C337.875 97.4688 335.531 97.7969 333.188 97.7969C329.938 97.7969 327.438 96.625 325.688 94.2812C323.969 91.9375 323.109 88.625 323.109 84.3438V53.9688H317.578ZM352.828 72.3906C352.828 64.6406 354.766 58.4688 358.641 53.875C362.516 49.2812 368.062 46.9844 375.281 46.9844C381.281 46.9844 386.25 49.0938 390.188 53.3125C394.156 57.5 396.141 64.2031 396.141 73.4219C396.141 74.8281 395.5 75.5312 394.219 75.5312H361.547C362.078 81.5625 363.703 85.7656 366.422 88.1406C369.141 90.4844 372.219 91.6562 375.656 91.6562C379.281 91.6562 382.062 91.0469 384 89.8281C385.938 88.6094 387.359 87.4062 388.266 86.2188C389.266 84.9062 390.234 84.6562 391.172 85.4688L393.938 87.8594C394.656 88.4844 394.656 89.3438 393.938 90.4375C393.344 91.3438 391.641 92.7969 388.828 94.7969C386.047 96.7969 381.656 97.7969 375.656 97.7969C367.844 97.7969 362.078 95.5 358.359 90.9062C354.672 86.3125 352.828 80.1406 352.828 72.3906ZM361.359 69.4375H387.844C387.719 65.0625 386.594 61.2344 384.469 57.9531C382.344 54.6406 379.219 52.9844 375.094 52.9844C371.469 52.9844 368.391 54.2031 365.859 56.6406C363.328 59.0469 361.828 63.3125 361.359 69.4375Z" fill="white"/>
<path d="M419.975 60.0655C422.194 59.6945 424.497 56.569 424.121 54.3505V54.3505C423.851 52.7563 422.341 51.682 420.747 51.9497L406.763 54.2976C405.127 54.5722 404.025 56.1219 404.302 57.7571L404.626 59.6715C404.905 61.3167 406.47 62.4191 408.113 62.1272C411.248 61.5699 416.237 60.6906 419.975 60.0655ZM406.486 28.981C407.445 27.6303 407.128 25.7574 405.777 24.7979L404.147 23.6397C402.796 22.6802 400.923 22.9973 399.964 24.3481L391.856 35.7615C390.897 37.1122 391.214 38.9851 392.565 39.9446L394.195 41.1028C395.546 42.0623 397.419 41.7452 398.378 40.3944L406.486 28.981ZM368.13 33.7251C368.395 35.3725 369.952 36.4875 371.597 36.2089L373.52 35.8833C375.152 35.6069 376.251 34.061 375.977 32.4287L373.632 18.4622C373.362 16.8548 371.839 15.7714 370.232 16.0435V16.0435C368.001 16.4215 365.794 19.644 366.176 21.8752C366.816 25.6079 367.625 30.5894 368.13 33.7251Z" fill="white"/>
</svg>
