<svg width="82" height="102" viewBox="0 0 82 102" fill="none" xmlns="http://www.w3.org/2000/svg">
<path d="M3.98438 72.3906C3.98438 64.6406 5.92188 58.4688 9.79688 53.875C13.6719 49.2812 19.2188 46.9844 26.4375 46.9844C32.4375 46.9844 37.4062 49.0938 41.3438 53.3125C45.3125 57.5 47.2969 64.2031 47.2969 73.4219C47.2969 74.8281 46.6562 75.5312 45.375 75.5312H12.7031C13.2344 81.5625 14.8594 85.7656 17.5781 88.1406C20.2969 90.4844 23.375 91.6562 26.8125 91.6562C30.4375 91.6562 33.2188 91.0469 35.1562 89.8281C37.0938 88.6094 38.5156 87.4062 39.4219 86.2188C40.4219 84.9062 41.3906 84.6562 42.3281 85.4688L45.0938 87.8594C45.8125 88.4844 45.8125 89.3438 45.0938 90.4375C44.5 91.3438 42.7969 92.7969 39.9844 94.7969C37.2031 96.7969 32.8125 97.7969 26.8125 97.7969C19 97.7969 13.2344 95.5 9.51562 90.9062C5.82812 86.3125 3.98438 80.1406 3.98438 72.3906ZM12.5156 69.4375H39C38.875 65.0625 37.75 61.2344 35.625 57.9531C33.5 54.6406 30.375 52.9844 26.25 52.9844C22.625 52.9844 19.5469 54.2031 17.0156 56.6406C14.4844 59.0469 12.9844 63.3125 12.5156 69.4375Z" fill="white"/>
<path d="M66.9751 61.0655C69.1944 60.6945 71.4971 57.569 71.1214 55.3505V55.3505C70.8515 53.7563 69.3414 52.682 67.7468 52.9497L53.763 55.2976C52.1274 55.5722 51.025 57.1219 51.3019 58.7571L51.6261 60.6715C51.9047 62.3167 53.47 63.4191 55.1129 63.1272C58.2482 62.5699 63.2366 61.6906 66.9751 61.0655ZM53.4858 29.981C54.4453 28.6303 54.1281 26.7574 52.7774 25.7979L51.1469 24.6397C49.7962 23.6802 47.9233 23.9973 46.9638 25.3481L38.8562 36.7615C37.8967 38.1122 38.2138 39.9851 39.5646 40.9446L41.1951 42.1028C42.5458 43.0623 44.4186 42.7452 45.3782 41.3944L53.4858 29.981ZM15.1301 34.7251C15.3953 36.3725 16.9516 37.4875 18.5968 37.2089L20.5195 36.8833C22.1515 36.6069 23.2513 35.061 22.9772 33.4287L20.6323 19.4622C20.3624 17.8548 18.8395 16.7714 17.2324 17.0435V17.0435C15.0005 17.4215 12.7937 20.644 13.1762 22.8752C13.8161 26.6079 14.6252 31.5894 15.1301 34.7251Z" fill="white"/>
</svg>
