<svg width="49" height="11" viewBox="0 0 49 11" fill="none" xmlns="http://www.w3.org/2000/svg">
<path d="M6.5957 9.77269H6.20898L5.58789 8.91136C5.43555 9.04808 5.27344 9.17699 5.10156 9.29808C4.93359 9.41527 4.75586 9.51878 4.56836 9.60863C4.38086 9.69456 4.1875 9.76292 3.98828 9.81371C3.79297 9.86449 3.59375 9.88988 3.39062 9.88988C2.94922 9.88988 2.5332 9.80785 2.14258 9.64378C1.75586 9.47581 1.41602 9.24535 1.12305 8.95238C0.833984 8.6555 0.605469 8.30589 0.4375 7.90355C0.269531 7.4973 0.185547 7.05589 0.185547 6.57933C0.185547 6.10667 0.269531 5.66722 0.4375 5.26097C0.605469 4.85472 0.833984 4.50316 1.12305 4.20628C1.41602 3.90941 1.75586 3.67699 2.14258 3.50902C2.5332 3.34105 2.94922 3.25706 3.39062 3.25706C3.53125 3.25706 3.67578 3.26878 3.82422 3.29222C3.97656 3.31566 4.12305 3.35472 4.26367 3.40941C4.4082 3.46019 4.54297 3.52855 4.66797 3.61449C4.79297 3.70042 4.89844 3.80589 4.98438 3.93089V1.00121H6.5957V9.77269ZM4.98438 6.57933C4.98438 6.36058 4.94141 6.14964 4.85547 5.94652C4.77344 5.73949 4.66016 5.55785 4.51562 5.4016C4.37109 5.24144 4.20117 5.11449 4.00586 5.02074C3.81445 4.92308 3.60938 4.87425 3.39062 4.87425C3.17188 4.87425 2.96484 4.91331 2.76953 4.99144C2.57812 5.06956 2.41016 5.18285 2.26562 5.33128C2.125 5.47581 2.01367 5.65355 1.93164 5.86449C1.84961 6.07542 1.80859 6.31371 1.80859 6.57933C1.80859 6.8098 1.84961 7.02855 1.93164 7.23558C2.01367 7.44261 2.125 7.62425 2.26562 7.7805C2.41016 7.93675 2.57812 8.0598 2.76953 8.14964C2.96484 8.23949 3.17188 8.28441 3.39062 8.28441C3.60938 8.28441 3.81445 8.23753 4.00586 8.14378C4.20117 8.04613 4.37109 7.91917 4.51562 7.76292C4.66016 7.60277 4.77344 7.42113 4.85547 7.218C4.94141 7.01097 4.98438 6.79808 4.98438 6.57933ZM9.67188 3.05199V6.41527H11.3535C11.584 6.41527 11.8008 6.3723 12.0039 6.28636C12.207 6.19652 12.3848 6.07542 12.5371 5.92308C12.6895 5.77074 12.8086 5.593 12.8945 5.38988C12.9844 5.18285 13.0293 4.9641 13.0293 4.73363C13.0293 4.50316 12.9844 4.28636 12.8945 4.08324C12.8086 3.87621 12.6895 3.69652 12.5371 3.54417C12.3848 3.39183 12.207 3.27269 12.0039 3.18675C11.8008 3.09691 11.584 3.05199 11.3535 3.05199H9.67188ZM9.67188 9.77269H7.99023V1.37035H11.3535C11.6621 1.37035 11.959 1.41136 12.2441 1.49339C12.5293 1.57152 12.7949 1.6848 13.041 1.83324C13.291 1.97777 13.5176 2.15355 13.7207 2.36058C13.9277 2.56371 14.1035 2.79027 14.248 3.04027C14.3965 3.29027 14.5098 3.55785 14.5879 3.843C14.6699 4.12816 14.7109 4.42503 14.7109 4.73363C14.7109 5.02269 14.6738 5.30394 14.5996 5.57738C14.5293 5.85081 14.4258 6.11058 14.2891 6.35667C14.1562 6.60277 13.9922 6.82933 13.7969 7.03636C13.6016 7.24339 13.3828 7.42308 13.1406 7.57542L14.0723 9.77269H12.2852L11.5527 8.07933L9.67188 8.09105V9.77269ZM21.6543 9.77269H21.2676L20.6465 8.91136C20.4941 9.04808 20.332 9.17699 20.1602 9.29808C19.9922 9.41527 19.8145 9.51878 19.627 9.60863C19.4395 9.69456 19.2461 9.76292 19.0469 9.81371C18.8516 9.86449 18.6523 9.88988 18.4492 9.88988C18.0078 9.88988 17.5918 9.81566 17.2012 9.66722C16.8145 9.51878 16.4746 9.30394 16.1816 9.02269C15.8926 8.73753 15.6641 8.38988 15.4961 7.97972C15.3281 7.56956 15.2441 7.10277 15.2441 6.57933C15.2441 6.09105 15.3281 5.64378 15.4961 5.23753C15.6641 4.82738 15.8926 4.47581 16.1816 4.18285C16.4746 3.88988 16.8145 3.66331 17.2012 3.50316C17.5918 3.3391 18.0078 3.25706 18.4492 3.25706C18.6523 3.25706 18.8535 3.28246 19.0527 3.33324C19.252 3.38402 19.4453 3.45433 19.6328 3.54417C19.8203 3.63402 19.998 3.73949 20.166 3.86058C20.3379 3.98167 20.498 4.11253 20.6465 4.25316L21.2676 3.50902H21.6543V9.77269ZM20.043 6.57933C20.043 6.36058 20 6.14964 19.9141 5.94652C19.832 5.73949 19.7188 5.55785 19.5742 5.4016C19.4297 5.24144 19.2598 5.11449 19.0645 5.02074C18.873 4.92308 18.668 4.87425 18.4492 4.87425C18.2305 4.87425 18.0234 4.91136 17.8281 4.98558C17.6367 5.0598 17.4688 5.16917 17.3242 5.31371C17.1836 5.45824 17.0723 5.63792 16.9902 5.85277C16.9082 6.06371 16.8672 6.30589 16.8672 6.57933C16.8672 6.85277 16.9082 7.09691 16.9902 7.31175C17.0723 7.52269 17.1836 7.70042 17.3242 7.84496C17.4688 7.98949 17.6367 8.09886 17.8281 8.17308C18.0234 8.2473 18.2305 8.28441 18.4492 8.28441C18.668 8.28441 18.873 8.23753 19.0645 8.14378C19.2598 8.04613 19.4297 7.91917 19.5742 7.76292C19.7188 7.60277 19.832 7.42113 19.9141 7.218C20 7.01097 20.043 6.79808 20.043 6.57933ZM24.9121 9.77269H23.3125V5.09105H22.5332V3.4973H23.3125V3.19847C23.3125 2.81175 23.3848 2.44847 23.5293 2.10863C23.6777 1.76878 23.8789 1.47386 24.1328 1.22386C24.3906 0.969955 24.6895 0.770737 25.0293 0.626205C25.3691 0.477768 25.7324 0.403549 26.1191 0.403549H27.3203V1.9973H26.1191C25.9473 1.9973 25.7871 2.02855 25.6387 2.09105C25.4941 2.14964 25.3672 2.23363 25.2578 2.343C25.1523 2.44847 25.0684 2.57542 25.0059 2.72386C24.9434 2.86839 24.9121 3.0266 24.9121 3.19847V3.4973H26.875V5.09105H24.9121V9.77269ZM30.7832 9.77269C30.3965 9.77269 30.0332 9.70042 29.6934 9.55589C29.3535 9.40746 29.0547 9.20628 28.7969 8.95238C28.543 8.69456 28.3418 8.39574 28.1934 8.05589C28.0488 7.71605 27.9766 7.35277 27.9766 6.96605V5.10277H27.1973V3.50902H27.9766V1.00121H29.5703V3.50902H31.9961V5.10277H29.5703V6.96605C29.5703 7.13402 29.6016 7.29222 29.6641 7.44066C29.7266 7.58519 29.8125 7.71214 29.9219 7.82152C30.0312 7.93089 30.1602 8.01878 30.3086 8.08519C30.457 8.14769 30.6152 8.17894 30.7832 8.17894H31.9961V9.77269H30.7832ZM35.3945 8.23753C35.457 8.25706 35.5195 8.27074 35.582 8.27855C35.6445 8.28246 35.707 8.28441 35.7695 8.28441C35.9258 8.28441 36.0762 8.26292 36.2207 8.21996C36.3652 8.17699 36.5 8.11644 36.625 8.03831C36.7539 7.95628 36.8672 7.85863 36.9648 7.74535C37.0664 7.62816 37.1484 7.49925 37.2109 7.35863L38.3828 8.53636C38.2344 8.7473 38.0625 8.93675 37.8672 9.10472C37.6758 9.27269 37.4668 9.41527 37.2402 9.53246C37.0176 9.64964 36.7812 9.73753 36.5312 9.79613C36.2852 9.85863 36.0312 9.88988 35.7695 9.88988C35.3281 9.88988 34.9121 9.80785 34.5215 9.64378C34.1348 9.47972 33.7949 9.25121 33.502 8.95824C33.2129 8.66527 32.9844 8.31761 32.8164 7.91527C32.6484 7.50902 32.5645 7.06371 32.5645 6.57933C32.5645 6.08324 32.6484 5.63011 32.8164 5.21996C32.9844 4.8098 33.2129 4.46019 33.502 4.17113C33.7949 3.88206 34.1348 3.65746 34.5215 3.4973C34.9121 3.33714 35.3281 3.25706 35.7695 3.25706C36.0312 3.25706 36.2871 3.28831 36.5371 3.35081C36.7871 3.41331 37.0234 3.50316 37.2461 3.62035C37.4727 3.73753 37.6836 3.88206 37.8789 4.05394C38.0742 4.22191 38.2461 4.41136 38.3945 4.6223L35.3945 8.23753ZM36.2148 4.93871C36.1406 4.91136 36.0664 4.89378 35.9922 4.88597C35.9219 4.87816 35.8477 4.87425 35.7695 4.87425C35.5508 4.87425 35.3438 4.91527 35.1484 4.9973C34.957 5.07542 34.7891 5.18871 34.6445 5.33714C34.5039 5.48558 34.3926 5.66527 34.3105 5.87621C34.2285 6.08324 34.1875 6.31761 34.1875 6.57933C34.1875 6.63792 34.1895 6.70433 34.1934 6.77855C34.2012 6.85277 34.2109 6.92894 34.2227 7.00706C34.2383 7.08128 34.2559 7.15355 34.2754 7.22386C34.2949 7.29417 34.3203 7.35667 34.3516 7.41136L36.2148 4.93871ZM45.2207 9.77269H44.834L44.2129 8.91136C44.0605 9.04808 43.8984 9.17699 43.7266 9.29808C43.5586 9.41527 43.3809 9.51878 43.1934 9.60863C43.0059 9.69456 42.8125 9.76292 42.6133 9.81371C42.418 9.86449 42.2188 9.88988 42.0156 9.88988C41.5742 9.88988 41.1582 9.80785 40.7676 9.64378C40.3809 9.47581 40.041 9.24535 39.748 8.95238C39.459 8.6555 39.2305 8.30589 39.0625 7.90355C38.8945 7.4973 38.8105 7.05589 38.8105 6.57933C38.8105 6.10667 38.8945 5.66722 39.0625 5.26097C39.2305 4.85472 39.459 4.50316 39.748 4.20628C40.041 3.90941 40.3809 3.67699 40.7676 3.50902C41.1582 3.34105 41.5742 3.25706 42.0156 3.25706C42.1562 3.25706 42.3008 3.26878 42.4492 3.29222C42.6016 3.31566 42.748 3.35472 42.8887 3.40941C43.0332 3.46019 43.168 3.52855 43.293 3.61449C43.418 3.70042 43.5234 3.80589 43.6094 3.93089V1.00121H45.2207V9.77269ZM43.6094 6.57933C43.6094 6.36058 43.5664 6.14964 43.4805 5.94652C43.3984 5.73949 43.2852 5.55785 43.1406 5.4016C42.9961 5.24144 42.8262 5.11449 42.6309 5.02074C42.4395 4.92308 42.2344 4.87425 42.0156 4.87425C41.7969 4.87425 41.5898 4.91331 41.3945 4.99144C41.2031 5.06956 41.0352 5.18285 40.8906 5.33128C40.75 5.47581 40.6387 5.65355 40.5566 5.86449C40.4746 6.07542 40.4336 6.31371 40.4336 6.57933C40.4336 6.8098 40.4746 7.02855 40.5566 7.23558C40.6387 7.44261 40.75 7.62425 40.8906 7.7805C41.0352 7.93675 41.2031 8.0598 41.3945 8.14964C41.5898 8.23949 41.7969 8.28441 42.0156 8.28441C42.2344 8.28441 42.4395 8.23753 42.6309 8.14378C42.8262 8.04613 42.9961 7.91917 43.1406 7.76292C43.2852 7.60277 43.3984 7.42113 43.4805 7.218C43.5664 7.01097 43.6094 6.79808 43.6094 6.57933ZM48.4141 9.17503C48.4141 9.31566 48.3887 9.44847 48.3379 9.57347C48.2871 9.69456 48.2168 9.80003 48.127 9.88988C48.0371 9.97972 47.9316 10.05 47.8105 10.1008C47.6895 10.1555 47.5586 10.1828 47.418 10.1828C47.2812 10.1828 47.1504 10.1555 47.0254 10.1008C46.9043 10.05 46.7969 9.97972 46.7031 9.88988C46.6133 9.80003 46.541 9.69456 46.4863 9.57347C46.4355 9.44847 46.4102 9.31566 46.4102 9.17503C46.4102 9.03831 46.4355 8.90941 46.4863 8.78831C46.541 8.66722 46.6133 8.56175 46.7031 8.47191C46.7969 8.38206 46.9043 8.31175 47.0254 8.26097C47.1504 8.20628 47.2812 8.17894 47.418 8.17894C47.5586 8.17894 47.6895 8.20628 47.8105 8.26097C47.9316 8.31175 48.0371 8.38206 48.127 8.47191C48.2168 8.56175 48.2871 8.66722 48.3379 8.78831C48.3887 8.90941 48.4141 9.03831 48.4141 9.17503Z" fill="#1E1E1E"/>
</svg>
